<svg width="235" height="52" viewBox="0 0 235 52" fill="none" xmlns="http://www.w3.org/2000/svg">
<path d="M75.5128 28.9433L74.7822 27.679L63.7554 8.58273V8.57179L63.436 8.00963V7.9965C61.4944 4.78966 58.4593 2.39245 54.8899 1.24646C51.3205 0.100477 47.4572 0.282908 44.0117 1.76015C43.4466 2.00406 42.8959 2.28013 42.3624 2.587C40.9467 3.40182 39.6687 4.43538 38.5759 5.64939C37.4748 4.42403 36.1847 3.38277 34.7545 2.56512C34.2529 2.27464 33.7351 2.01318 33.2036 1.78202C29.7174 0.258493 25.7918 0.0737084 22.1779 1.26302C18.5639 2.45233 15.5153 4.93224 13.6152 8.22837L2.07651 28.2105C0.162077 31.5234 -0.457261 35.4279 0.338037 39.1706C1.13333 42.9133 3.28688 46.2286 6.38299 48.4768C9.4791 50.7249 13.2983 51.7464 17.1033 51.3441C20.9083 50.9418 24.4294 49.1442 26.9869 46.2983C27.0635 46.3858 27.1444 46.4711 27.2232 46.5564C28.6821 48.1027 30.4435 49.3321 32.3979 50.1684C34.3523 51.0047 36.4579 51.43 38.5837 51.4176C40.7094 51.4053 42.81 50.9558 44.7546 50.0969C46.6992 49.238 48.4462 47.9882 49.8871 46.4252L50.0883 46.2065C52.5743 49.0573 56.0181 50.8991 59.7694 51.3841C63.5206 51.8691 67.3196 50.9637 70.4489 48.839C73.5782 46.7142 75.8211 43.5171 76.7541 39.8515C77.687 36.1859 77.2455 32.3056 75.5128 28.9433ZM26.8557 31.4435L23.1371 37.8877L22.0805 39.7142V39.7339L22.0652 39.7579L22.0433 39.7973C21.0043 41.4894 19.3442 42.7076 17.4184 43.1911C15.4925 43.6747 13.4539 43.3853 11.7387 42.3848C10.0235 41.3843 8.76813 39.7522 8.24111 37.8377C7.71408 35.9233 7.95733 33.8787 8.91878 32.1413L13.7158 23.8291L15.6604 20.4583L20.4575 12.146C21.265 10.746 22.4978 9.63994 23.9769 8.98845C25.456 8.33697 27.1042 8.17402 28.6823 8.52328C30.2603 8.87254 31.6858 9.71581 32.7518 10.9306C33.8179 12.1454 34.4688 13.6684 34.6101 15.2784C34.6538 15.7419 34.6538 16.2084 34.6101 16.6718C34.5362 17.4396 34.3444 18.1915 34.0414 18.9008C33.9154 19.1892 33.7707 19.4691 33.6083 19.7386L33.5886 19.7758L32.4949 21.6767L28.8069 28.0639L26.8557 31.4435ZM42.2945 42.5316C41.4302 43.0307 40.476 43.3546 39.4865 43.4848C38.497 43.6151 37.4915 43.5492 36.5274 43.2908C35.5634 43.0324 34.6597 42.5867 33.8679 41.979C33.0762 41.3713 32.4119 40.6136 31.913 39.7492C31.7825 39.5242 31.6635 39.2928 31.5565 39.0558L37.7141 28.3899L38.589 26.8587L39.4837 28.4074L45.5122 38.848C44.8761 40.3976 43.7446 41.6929 42.2945 42.5316ZM65.5578 42.6191C63.8121 43.6264 61.7378 43.8992 59.791 43.3774C57.8441 42.8556 56.1843 41.582 55.1763 39.8367L53.8835 37.5967L50.4208 31.5988L48.4325 28.158L44.762 21.7992L44.0817 20.6136C43.8819 20.3515 43.6992 20.0767 43.5348 19.7911C43.3858 19.5338 43.2521 19.268 43.1345 18.9949L43.0951 18.9052C42.3889 17.1714 42.3425 15.239 42.9645 13.4733C43.5865 11.7076 44.834 10.231 46.4709 9.32269C48.1079 8.41439 50.0209 8.13733 51.8483 8.5439C53.6756 8.95048 55.2907 10.0125 56.3881 11.5292C56.5281 11.7261 56.6594 11.9295 56.7819 12.1417C56.9044 12.3539 57.0159 12.5792 57.1165 12.7979L61.5964 20.5567L63.5345 23.9144L68.3468 32.2266C68.847 33.0919 69.1717 34.0473 69.3022 35.0382C69.4328 36.0291 69.3666 37.036 69.1076 38.0012C68.8485 38.9665 68.4017 39.8713 67.7925 40.6637C67.1834 41.456 66.424 42.1205 65.5578 42.6191Z" fill="#00CC57"/>
<path d="M92.7051 22.1994H89.0762V5.99057H93.9869L97.7778 13.9747L99.309 17.7699H99.5758L101.059 13.9747L104.736 5.99057H109.671V22.1994H106.035V13.9747L106.156 11.4263H105.891L104.946 13.9681L101.56 21.2304H97.1565L93.7704 13.9747L92.8276 11.4263H92.5607L92.7051 13.9681V22.1994Z" fill="white"/>
<path d="M115.301 22.4403C113.989 22.4403 112.965 22.1486 112.228 21.5653C111.868 21.2882 111.58 20.9289 111.387 20.5175C111.195 20.1061 111.104 19.6546 111.121 19.2007C111.106 18.6445 111.259 18.0965 111.559 17.6279C111.888 17.1604 112.343 16.7956 112.871 16.5758C113.563 16.2801 114.298 16.0962 115.048 16.0311L120.49 15.4733V17.5514L116.039 18.061C115.704 18.0648 115.375 18.152 115.083 18.3148C114.982 18.3867 114.901 18.4834 114.848 18.5957C114.795 18.7079 114.772 18.8319 114.781 18.9557C114.772 19.0974 114.804 19.2387 114.872 19.363C114.941 19.4874 115.044 19.5896 115.168 19.6579C115.54 19.8259 115.947 19.901 116.354 19.8766C117.079 19.8935 117.803 19.8126 118.506 19.636C119.008 19.5129 119.461 19.2379 119.801 18.8485C120.114 18.427 120.269 17.9091 120.239 17.3851L120.575 17.3611V19.4172H120.239C119.978 20.3343 119.387 21.1226 118.58 21.6309C117.748 22.1719 116.655 22.4417 115.301 22.4403ZM123.808 22.1997H120.429V19.321L120.236 19.2729V15.038C120.236 14.2484 120.037 13.7256 119.644 13.4412C119.25 13.1568 118.567 13.03 117.598 13.03C116.68 13.03 116.018 13.167 115.614 13.4412C115.21 13.7154 115.009 14.1995 115.011 14.8936V14.9899H111.358V14.9265C111.341 13.9818 111.62 13.0557 112.156 12.2775C112.727 11.4804 113.511 10.8602 114.418 10.4882C115.51 10.0376 116.684 9.81936 117.865 9.84725C119.218 9.84725 120.335 10.066 121.216 10.5035C122.048 10.8909 122.736 11.5298 123.185 12.33C123.621 13.1816 123.836 14.1296 123.808 15.0861V22.1997Z" fill="white"/>
<path d="M131.777 22.4402C129.745 22.4402 128.18 22.0574 127.082 21.2918C125.984 20.5262 125.436 19.4419 125.437 18.0391V17.9647H129.06V18.1834C129.06 18.7332 129.257 19.0978 129.653 19.2772C130.048 19.4565 130.762 19.5491 131.794 19.555C132.761 19.555 133.402 19.4718 133.717 19.3012C133.864 19.2308 133.987 19.1189 134.071 18.9793C134.155 18.8398 134.196 18.6787 134.189 18.5159C134.202 18.3749 134.175 18.2331 134.111 18.1069C134.046 17.9807 133.948 17.8753 133.826 17.8028C133.583 17.665 133.109 17.5469 132.398 17.4507L128.994 17.046C127.784 16.9162 126.853 16.5779 126.201 16.031C125.549 15.4842 125.222 14.6938 125.221 13.6598C125.214 12.9675 125.435 12.2922 125.849 11.7371C126.355 11.1019 127.03 10.6232 127.798 10.3568C128.673 10.0112 129.805 9.83841 131.195 9.83841C132.34 9.81084 133.481 9.978 134.57 10.3328C135.411 10.6015 136.149 11.1204 136.687 11.8202C137.189 12.5427 137.444 13.4083 137.414 14.2876V14.362H133.785V14.2154C133.796 13.9238 133.725 13.6349 133.579 13.382C133.381 13.1247 133.097 12.9482 132.778 12.8855C132.219 12.7559 131.646 12.6993 131.072 12.7171C130.169 12.7171 129.565 12.8002 129.259 12.9708C129.11 13.0503 128.987 13.1713 128.905 13.3192C128.823 13.4671 128.785 13.6356 128.797 13.8042C128.792 13.942 128.824 14.0786 128.891 14.1992C128.958 14.3199 129.056 14.42 129.176 14.4889C129.425 14.6442 129.946 14.7754 130.735 14.8892L133.325 15.2042C134.938 15.3806 136.083 15.751 136.76 16.3154C137.436 16.8797 137.775 17.6621 137.777 18.6625C137.788 19.3907 137.529 20.0973 137.05 20.6465C136.492 21.2566 135.783 21.7093 134.994 21.9589C133.957 22.2999 132.869 22.4626 131.777 22.4402Z" fill="white"/>
<path d="M147.79 13.0779H138.332V10.079H147.79V13.0779ZM147.79 22.1995H144.791C143.371 22.1995 142.258 21.8524 141.453 21.1583C140.649 20.4642 140.245 19.3515 140.244 17.8203V7.73187H143.871V17.409C143.871 18.0215 144.004 18.4306 144.271 18.6318C144.538 18.8331 144.984 18.9337 145.614 18.9337H147.801L147.79 22.1995Z" fill="white"/>
<path d="M155.579 22.4401C154.361 22.4626 153.151 22.2325 152.027 21.7642C151.025 21.3429 150.182 20.6145 149.62 19.684C149.055 18.7477 148.772 17.5702 148.772 16.1513C148.741 14.9774 149.035 13.818 149.62 12.8001C150.181 11.8608 151 11.1017 151.978 10.6127C153.073 10.079 154.28 9.81425 155.498 9.84054C156.69 9.81456 157.874 10.0451 158.969 10.5165C159.926 10.936 160.734 11.6343 161.288 12.5201C161.861 13.4886 162.146 14.6001 162.111 15.7247C162.111 15.9435 162.111 16.1272 162.087 16.3044C162.062 16.4816 162.047 16.6762 162.014 16.8862H151.128V14.9657H159.451L158.628 16.1513V15.2566C158.628 14.3379 158.378 13.6766 157.878 13.2726C157.378 12.8687 156.563 12.6667 155.435 12.6667C154.207 12.6667 153.352 12.9051 152.871 13.382C152.39 13.8588 152.148 14.6128 152.145 15.6438V16.5625C152.145 17.595 152.387 18.3489 152.871 18.8243C153.355 19.2997 154.218 19.5374 155.459 19.5374C156.522 19.5374 157.271 19.4003 157.707 19.1262C157.914 19.0069 158.085 18.8335 158.2 18.6246C158.316 18.4157 158.372 18.1792 158.364 17.9406V17.7H161.992V17.9646C162.002 18.8078 161.72 19.6284 161.194 20.2877C160.604 21.0074 159.831 21.5551 158.956 21.8736C157.876 22.2724 156.73 22.4646 155.579 22.4401Z" fill="white"/>
<path d="M167.289 22.1998H163.66V10.0792H167.022V13.5398L167.289 13.6601V22.1998ZM167.289 15.1847H166.563V13.297H167.241C167.34 12.6665 167.563 12.062 167.897 11.5186C168.227 10.9953 168.691 10.5694 169.24 10.2849C169.88 9.97349 170.586 9.8233 171.296 9.84738C172.215 9.84738 172.953 10.0362 173.51 10.4139C174.062 10.7898 174.487 11.3235 174.731 11.9451C174.997 12.6272 175.129 13.3545 175.118 14.0866V16.0947H171.496V14.8216C171.496 14.1435 171.35 13.6557 171.058 13.3582C170.766 13.0607 170.246 12.9149 169.498 12.9207C168.691 12.9207 168.122 13.1059 167.792 13.4763C167.463 13.8467 167.295 14.4162 167.289 15.1847Z" fill="white"/>
<path d="M180.061 22.1994H176.432V10.0789H179.794V13.8522L180.061 13.9747V22.1994ZM189.302 22.1994H185.674V15.8559C185.674 14.857 185.472 14.1475 185.068 13.7275C184.664 13.3075 183.938 13.0983 182.891 13.0997C181.777 13.0997 181.027 13.333 180.642 13.7997C180.257 14.2663 180.063 15.0247 180.061 16.0746H179.601L179.334 13.7516H179.991C180.099 13.0858 180.321 12.4436 180.647 11.8529C180.983 11.2494 181.476 10.7476 182.073 10.4004C182.703 10.0227 183.525 9.83389 184.54 9.83389C185.587 9.83389 186.446 10.0526 187.117 10.4901C187.775 10.9134 188.293 11.5224 188.605 12.2401C188.934 13.0035 189.099 13.8279 189.088 14.6594H189.307L189.302 22.1994ZM198.542 22.1994H194.915V15.8559C194.915 14.857 194.713 14.1475 194.309 13.7275C193.906 13.3075 193.18 13.0983 192.133 13.0997C191.035 13.0997 190.289 13.333 189.895 13.7997C189.502 14.2663 189.304 15.0247 189.302 16.0746H188.843L188.557 13.8041H189.259C189.349 13.1235 189.565 12.4655 189.895 11.8638C190.244 11.2507 190.754 10.7446 191.37 10.4004C192.024 10.0227 192.867 9.83389 193.898 9.83389C194.929 9.83389 195.796 10.0432 196.499 10.4617C197.17 10.8679 197.703 11.4661 198.03 12.1788C198.379 12.9538 198.553 13.7964 198.538 14.6462L198.542 22.1994Z" fill="white"/>
<path d="M204.01 8.84516H200.381V5.99057H204.01V8.84516ZM204.01 22.1994H200.381V10.0789H204.01V22.1994Z" fill="white"/>
<path d="M209.555 22.1997H205.92V10.0792H209.284V13.8525L209.549 13.975L209.555 22.1997ZM219.329 22.1997H215.693V15.8562C215.693 14.8747 215.468 14.1697 215.017 13.7409C214.567 13.3122 213.784 13.0986 212.67 13.1C211.504 13.1 210.693 13.3377 210.238 13.8131C209.783 14.2885 209.555 15.0439 209.555 16.0793H209.096L208.829 13.8044H209.507C209.623 13.1225 209.869 12.4695 210.234 11.8816C210.623 11.2596 211.169 10.7505 211.817 10.4051C212.504 10.0274 213.379 9.83856 214.442 9.83856C215.54 9.83856 216.452 10.0522 217.176 10.4795C217.878 10.88 218.442 11.4821 218.797 12.2075C219.16 12.9704 219.341 13.8065 219.329 14.6509V22.1997Z" fill="white"/>
<path d="M226.581 22.44C225.324 22.44 224.259 22.1826 223.387 21.6679C222.521 21.1554 221.829 20.3929 221.403 19.4804C220.932 18.436 220.701 17.299 220.727 16.1534C220.696 15.0016 220.92 13.8572 221.384 12.8022C221.794 11.8958 222.468 11.1337 223.317 10.6148C224.247 10.0789 225.307 9.81161 226.38 9.84263C227.818 9.84263 228.923 10.1649 229.696 10.8095C230.461 11.4403 230.975 12.324 231.146 13.301H231.824V16.0352H231.365C231.365 14.9882 231.062 14.2459 230.457 13.8084C229.852 13.371 228.969 13.1522 227.808 13.1522C227.155 13.1328 226.504 13.2306 225.885 13.4409C225.411 13.6071 225.011 13.9377 224.759 14.3728C224.491 14.9259 224.367 15.5375 224.398 16.1512C224.369 16.7556 224.493 17.3574 224.759 17.9011C225.008 18.3421 225.408 18.6778 225.885 18.8461C226.504 19.0564 227.155 19.1542 227.808 19.1348C228.469 19.1524 229.128 19.0547 229.755 18.8461C230.247 18.6769 230.668 18.3491 230.954 17.9142C231.249 17.4044 231.392 16.8206 231.365 16.2321H231.824L232.065 18.8461H231.409C231.181 20.039 230.665 20.938 229.86 21.5432C229.055 22.1484 227.962 22.4473 226.581 22.44ZM235 22.1994H231.612V18.6186L231.371 18.3036V5.99057H235V22.1994Z" fill="white"/>
<path d="M92.7051 44.1722H89.0762V27.9656H98.0271C99.1905 27.9345 100.349 28.1275 101.44 28.5343C102.302 28.8555 103.045 29.4334 103.568 30.1902C104.069 30.9769 104.322 31.896 104.294 32.8282C104.316 33.6165 104.141 34.3978 103.784 35.101C103.433 35.7435 102.9 36.269 102.253 36.6125C101.465 37.0242 100.599 37.2677 99.7114 37.3278V37.5203C100.324 37.6522 100.886 37.9557 101.332 38.3952C101.721 38.8288 102.054 39.3086 102.325 39.8236L104.673 44.1766H100.47L98.2459 39.968C98.0608 39.6056 97.8243 39.2718 97.5437 38.9771C97.284 38.7251 96.9627 38.5456 96.6119 38.4565C96.117 38.3384 95.6089 38.2855 95.1003 38.299H92.7051V44.1722ZM92.7051 31.2314V35.5603H97.9965C98.8518 35.5603 99.4796 35.4116 99.8842 35.1229C100.289 34.8341 100.488 34.2479 100.488 33.3926C100.488 32.5862 100.287 32.0255 99.8842 31.7105C99.4796 31.3977 98.8518 31.2402 97.9965 31.2402L92.7051 31.2314Z" fill="white"/>
<path d="M112.252 44.415C111.032 44.4385 109.821 44.2075 108.695 43.7369C107.692 43.3172 106.85 42.5884 106.289 41.6566C105.725 40.7233 105.443 39.5465 105.443 38.1261C105.418 36.9507 105.718 35.7913 106.309 34.775C106.871 33.8355 107.69 33.0765 108.669 32.5875C109.764 32.0515 110.971 31.786 112.189 31.8132C113.381 31.787 114.565 32.0183 115.66 32.4913C116.613 32.9091 117.418 33.6043 117.97 34.4862C118.537 35.4564 118.817 36.5677 118.777 37.6908C118.777 37.9095 118.777 38.0933 118.753 38.2705C118.729 38.4477 118.712 38.6423 118.681 38.8501H107.801V36.9405H116.124L115.301 38.1261V37.238C115.301 36.3193 115.051 35.6587 114.551 35.2562C114.051 34.8537 113.237 34.6517 112.108 34.6503C110.881 34.6503 110.028 34.8887 109.542 35.3634C109.056 35.8381 108.818 36.5949 108.818 37.6252V38.5461C108.818 39.5786 109.059 40.3325 109.542 40.8079C110.025 41.2833 110.888 41.521 112.132 41.521C113.195 41.521 113.945 41.3839 114.381 41.1098C114.587 40.9905 114.758 40.8171 114.874 40.6082C114.989 40.3993 115.046 40.1628 115.037 39.9242V39.6814H118.666V39.9482C118.674 40.7909 118.391 41.6106 117.865 42.2691C117.274 42.9876 116.502 43.5345 115.627 43.8528C114.548 44.2502 113.403 44.4409 112.252 44.415Z" fill="white"/>
<path d="M126.793 44.4146C125.548 44.4421 124.313 44.1769 123.189 43.6402C122.196 43.1614 121.367 42.4005 120.804 41.4528C120.257 40.4253 119.971 39.279 119.971 38.1148C119.971 36.9506 120.257 35.8043 120.804 34.7768C121.367 33.8296 122.196 33.0689 123.189 32.5893C124.313 32.0527 125.548 31.7874 126.793 31.815C127.971 31.7911 129.141 32.0147 130.228 32.4712C131.148 32.8555 131.944 33.4878 132.527 34.2977C133.082 35.1039 133.37 36.0643 133.349 37.0429V37.382H129.744V37.1873C129.744 36.413 129.477 35.8749 128.946 35.5555C128.414 35.2361 127.671 35.083 126.719 35.083C125.638 35.083 124.844 35.309 124.337 35.7611C123.829 36.2132 123.576 37.0036 123.576 38.1323C123.576 39.2275 123.829 40.0054 124.337 40.4663C124.844 40.9271 125.638 41.1568 126.719 41.1553C127.671 41.1553 128.414 40.9978 128.946 40.6828C129.478 40.3678 129.744 39.8239 129.744 39.051V38.8563H133.349V39.1954C133.37 40.1741 133.082 41.1345 132.527 41.9406C131.944 42.7505 131.148 43.3829 130.228 43.7671C129.141 44.2206 127.971 44.4412 126.793 44.4146Z" fill="white"/>
<path d="M141.378 44.4154C140.129 44.442 138.891 44.1768 137.762 43.6411C136.759 43.1595 135.915 42.4004 135.33 41.4537C134.759 40.4338 134.459 39.2845 134.459 38.1157C134.459 36.9468 134.759 35.7975 135.33 34.7776C135.915 33.8314 136.759 33.0725 137.762 32.5902C138.902 32.0797 140.136 31.8158 141.385 31.8158C142.633 31.8158 143.867 32.0797 145.007 32.5902C146.005 33.0747 146.844 33.8335 147.426 34.7776C147.997 35.7975 148.297 36.9468 148.297 38.1157C148.297 39.2845 147.997 40.4338 147.426 41.4537C146.844 42.3983 146.005 43.1572 145.007 43.6411C143.874 44.1794 142.632 44.4446 141.378 44.4154ZM141.378 41.1977C142.604 41.1977 143.463 40.952 143.955 40.4606C144.446 39.9691 144.692 39.1911 144.692 38.1266C144.692 37.046 144.446 36.2556 143.955 35.7554C143.463 35.2552 142.604 35.0051 141.378 35.0051C140.153 35.0051 139.294 35.2552 138.801 35.7554C138.308 36.2556 138.063 37.046 138.064 38.1266C138.064 39.1897 138.31 39.9677 138.801 40.4606C139.293 40.9535 140.152 41.1992 141.378 41.1977Z" fill="white"/>
<path d="M158.809 44.1721H154.323L148.809 32.0538H152.847L156.476 40.6416H156.718L160.371 32.0538H164.339L158.809 44.1721Z" fill="white"/>
<path d="M171.739 44.415C170.519 44.4385 169.308 44.2075 168.182 43.7369C167.179 43.3172 166.336 42.5884 165.776 41.6566C165.213 40.7233 164.932 39.5465 164.932 38.1261C164.902 36.9526 165.194 35.7933 165.778 34.775C166.34 33.8361 167.158 33.0773 168.136 32.5875C169.232 32.0517 170.439 31.7862 171.658 31.8132C172.851 31.787 174.035 32.0183 175.13 32.4913C176.083 32.9091 176.887 33.6043 177.44 34.4862C178.015 35.4539 178.305 36.5651 178.275 37.6908C178.275 37.9095 178.275 38.0933 178.251 38.2705C178.227 38.4477 178.209 38.6423 178.179 38.8501H167.288V36.9405H175.6L174.777 38.1261V37.238C174.777 36.3193 174.527 35.6587 174.027 35.2562C173.527 34.8537 172.712 34.6517 171.584 34.6503C170.359 34.6503 169.504 34.888 169.02 35.3634C168.536 35.8388 168.294 36.5927 168.294 37.6252V38.5461C168.294 39.5786 168.536 40.3325 169.02 40.8079C169.504 41.2833 170.367 41.521 171.608 41.521C172.674 41.521 173.424 41.3839 173.859 41.1098C174.066 40.9905 174.236 40.8171 174.352 40.6082C174.467 40.3993 174.524 40.1628 174.515 39.9242V39.6814H178.144V39.9482C178.154 40.7898 177.875 41.6094 177.352 42.2691C176.761 42.9871 175.988 43.5339 175.114 43.8528C174.034 44.2502 172.889 44.4409 171.739 44.415Z" fill="white"/>
<path d="M183.447 44.1719H179.82V32.0536H183.182V35.5119L183.447 35.6322V44.1719ZM183.447 37.1569H182.723V35.2691H183.399C183.498 34.6387 183.721 34.0342 184.055 33.4907C184.385 32.9669 184.848 32.5409 185.398 32.257C186.036 31.9409 186.743 31.7868 187.454 31.8086C188.376 31.8086 189.114 31.9982 189.668 32.3773C190.222 32.7519 190.648 33.2859 190.891 33.9085C191.157 34.5898 191.289 35.3164 191.278 36.0478V38.0559H187.658V36.8003C187.658 36.1244 187.507 35.6366 187.22 35.3369C186.934 35.0372 186.402 34.8994 185.661 34.8994C184.854 34.8994 184.285 35.0832 183.955 35.455C183.624 35.8269 183.447 36.3825 183.447 37.1569Z" fill="white"/>
<path d="M194.915 48.2871H192.931V45.0059H195.906C196.255 45.0271 196.605 44.9609 196.923 44.8134C197.176 44.6526 197.37 44.4149 197.478 44.1353L197.986 42.9498L197.623 44.645L191.498 32.0651H195.61L198.181 37.5927L199.196 40.4364H199.438L200.405 37.5577L202.704 32.0432H206.744L200.744 45.0344C200.425 45.7722 199.965 46.4409 199.39 47.0031C198.862 47.485 198.221 47.8259 197.527 47.994C196.671 48.1992 195.794 48.2976 194.915 48.2871Z" fill="white"/>
</svg>
